<?xml version="1.0" standalone="no"?>
<!DOCTYPE svg PUBLIC "-//W3C//DTD SVG 20010904//EN"
        "http://www.w3.org/TR/2001/REC-SVG-20010904/DTD/svg10.dtd">
<svg version="1.0" xmlns="http://www.w3.org/2000/svg" width="426pt" height="426pt" viewBox="0 0 406 406" preserveAspectRatio="xMidYMid meet">
    <circle cx="203" cy="203" r="203" fill="white"/>
    <g transform="translate(-50,419) scale(0.1,-0.1)" fill="#1C6554" stroke="#1C6554" stroke-width="15">
        <path d="M 2200 4111 C 2200 4095 2242 4029 2248 4035 C 2251 4038 2248 4046 2242 4052 C 2228 4066 2226 4090 2239 4090 C 2261 4090 2338 3992 2375 3917 C 2431 3805 2434 3804 2685 3789 C 2866 3779 2889 3779 2925 3794 C 2977 3816 3005 3842 3051 3915 L 3090 3975 L 3090 3928 C 3090 3900 3095 3880 3101 3880 C 3107 3880 3131 3896 3155 3916 C 3196 3949 3265 3978 3277 3966 C 3280 3963 3266 3946 3246 3927 C 3226 3907 3210 3883 3210 3870 C 3210 3850 3213 3848 3245 3854 C 3292 3863 3303 3855 3284 3825 C 3266 3798 3267 3798 3325 3785 C 3378 3774 3443 3738 3531 3671 C 3578 3635 3643 3589 3675 3570 C 3708 3551 3755 3514 3782 3488 C 3823 3447 3830 3434 3830 3402 C 3830 3352 3790 3295 3710 3233 C 3631 3172 3606 3122 3602 3013 C 3597 2916 3589 2911 3537 2969 C 3487 3025 3475 3044 3435 3143 C 3402 3226 3400 3238 3400 3348 C 3399 3479 3390 3530 3353 3610 C 3313 3698 3230 3752 3230 3690 C 3230 3679 3245 3631 3264 3582 C 3300 3489 3340 3366 3340 3350 C 3340 3331 3323 3340 3312 3365 C 3306 3379 3297 3390 3292 3390 C 3287 3390 3299 3358 3319 3320 C 3346 3264 3351 3247 3341 3237 C 3332 3228 3320 3235 3287 3272 C 3231 3335 3200 3342 3161 3300 C 3142 3279 3131 3254 3128 3229 C 3126 3207 3125 3190 3125 3190 C 3125 3189 3149 3187 3178 3184 C 3235 3178 3280 3196 3280 3225 C 3280 3243 3284 3244 3311 3228 C 3328 3217 3334 3218 3350 3237 C 3365 3256 3369 3257 3374 3244 C 3377 3235 3380 3216 3380 3202 C 3380 3187 3393 3144 3409 3105 C 3439 3033 3542 2826 3559 2806 C 3570 2793 3670 2620 3670 2615 C 3670 2605 3622 2622 3598 2640 C 3556 2671 3564 2647 3620 2575 C 3662 2519 3690 2461 3690 2425 C 3690 2420 3668 2438 3640 2465 C 3613 2492 3587 2511 3584 2507 C 3578 2502 3600 2413 3628 2330 C 3631 2322 3610 2338 3583 2366 C 3537 2413 3496 2439 3484 2428 C 3482 2425 3485 2399 3490 2369 C 3502 2309 3505 2157 3495 2140 C 3483 2121 3475 2130 3456 2182 C 3433 2248 3412 2280 3393 2280 C 3382 2280 3379 2272 3382 2248 C 3388 2212 3371 2141 3347 2093 C 3320 2041 3251 1992 3126 1934 C 2988 1871 2954 1848 2897 1774 C 2852 1718 2784 1593 2792 1585 C 2795 1582 2819 1617 2846 1662 C 2906 1765 2967 1831 3033 1865 C 3061 1880 3091 1896 3099 1900 C 3108 1905 3141 1918 3173 1931 C 3292 1976 3381 2070 3396 2168 C 3400 2191 3406 2213 3411 2216 C 3425 2224 3460 2143 3460 2100 C 3460 2046 3479 2051 3502 2111 C 3522 2162 3526 2295 3509 2353 C 3496 2400 3502 2408 3534 2386 C 3603 2342 3659 2230 3676 2105 C 3680 2077 3691 2047 3701 2037 C 3712 2027 3720 2014 3720 2008 C 3720 1988 3771 1930 3803 1914 C 3911 1859 3734 1986 3693 2132 C 3674 2200 3657 2266 3656 2280 C 3654 2294 3643 2338 3631 2379 C 3620 2420 3612 2455 3614 2457 C 3616 2459 3644 2431 3676 2395 C 3707 2359 3752 2318 3774 2305 C 3824 2276 3720 2349 3720 2395 C 3720 2435 3680 2534 3648 2574 C 3624 2604 3621 2612 3636 2606 C 3672 2591 3720 2582 3720 2590 C 3720 2595 3716 2600 3712 2602 C 3701 2606 3636 2711 3580 2815 C 3556 2859 3528 2907 3517 2922 C 3489 2960 3501 2966 3545 2935 C 3588 2906 3615 2903 3624 2926 C 3627 2935 3630 2976 3630 3017 C 3630 3111 3640 3128 3755 3233 C 3804 3278 3840 3319 3840 3330 C 3840 3340 3845 3352 3850 3355 C 3866 3365 3862 3433 3843 3460 C 3817 3500 3755 3555 3703 3585 C 3677 3601 3628 3634 3595 3659 C 3501 3732 3412 3788 3372 3800 C 3352 3806 3329 3813 3321 3816 C 3310 3819 3310 3823 3320 3836 C 3337 3856 3324 3868 3280 3872 C 3231 3876 3235 3899 3292 3935 C 3318 3952 3340 3968 3340 3973 C 3340 3977 3312 3980 3278 3980 C 3228 3980 3207 3974 3162 3949 L 3107 3918 L 3112 3964 C 3115 3990 3114 4013 3109 4015 C 3105 4018 3076 3982 3044 3935 C 2957 3805 2961 3806 2712 3814 C 2442 3823 2454 3817 2365 3980 C 2333 4038 2312 4063 2265 4094 C 2226 4121 2200 4127 2200 4111 Z M 3296 3658 C 3350 3593 3374 3524 3378 3418 C 3381 3351 3379 3320 3371 3320 C 3365 3320 3358 3330 3356 3343 C 3336 3440 3323 3484 3289 3567 C 3267 3619 3250 3668 3250 3676 C 3250 3699 3266 3692 3296 3658 Z M 3254 3284 C 3268 3269 3280 3254 3280 3250 C 3280 3238 3220 3190 3206 3190 C 3182 3190 3150 3222 3150 3246 C 3150 3274 3182 3310 3209 3310 C 3219 3310 3239 3298 3254 3284 Z"/>
        <path d="M2246 3995 c3 -14 4 -25 1 -25 -3 0 -38 7 -78 15 -40 9 -81 13 -91 9
-17 -5 -16 -8 12 -37 54 -55 39 -72 -85 -97 -123 -24 -194 -52 -266 -102 -111
-78 -186 -99 -266 -73 -31 10 -42 -19 -18 -45 24 -26 16 -33 -24 -19 -43 15
-49 6 -18 -30 25 -30 25 -30 8 -76 -15 -43 -15 -47 3 -78 10 -18 38 -71 62
-118 54 -106 62 -113 114 -105 45 7 47 4 21 -32 -37 -54 -80 -243 -55 -241 5
0 29 28 54 62 25 33 51 63 58 65 15 5 -23 -75 -74 -156 -19 -29 -34 -55 -34
-57 0 -3 -24 -37 -53 -75 -29 -38 -71 -104 -92 -146 -38 -74 -40 -82 -40 -170
0 -61 4 -97 13 -106 9 -9 12 -9 12 5 0 10 4 25 9 35 5 9 16 34 25 56 21 48
102 143 138 162 49 25 162 148 207 224 48 81 95 206 81 215 -5 3 -14 -12 -21
-32 -18 -56 -72 -164 -106 -214 -39 -56 -62 -80 -190 -198 -57 -52 -103 -99
-103 -105 0 -16 -34 -85 -42 -86 -12 0 -9 99 3 144 6 21 53 102 106 179 114
170 219 362 203 372 -7 4 -39 -21 -76 -57 -79 -80 -83 -65 -19 77 25 55 45
101 45 103 0 3 -24 1 -54 -2 -62 -8 -86 7 -86 54 0 16 -10 41 -23 57 -31 38
-74 105 -80 123 -2 8 2 28 10 44 9 17 13 41 9 58 -5 28 -5 28 36 26 44 -3 64
16 29 27 -38 12 -22 22 42 28 73 7 120 25 185 72 73 52 177 95 282 116 59 12
100 26 108 36 18 24 15 70 -5 82 -46 25 17 22 115 -5 20 -6 22 -3 22 30 0 20
-5 36 -10 36 -6 0 -8 -11 -4 -25z"/>
        <path d="M2220 3817 c-64 -42 -76 -77 -71 -207 10 -269 8 -311 -18 -378 -27
-72 -77 -132 -110 -132 -25 0 -87 40 -164 106 -66 56 -167 141 -234 197 -29
24 -65 49 -80 56 -16 7 -36 18 -46 23 -11 5 -21 7 -24 4 -9 -9 16 -34 40 -42
27 -8 109 -70 120 -90 4 -8 13 -14 18 -14 6 0 74 -54 152 -121 143 -122 169
-139 212 -139 56 0 91 36 131 132 17 44 34 62 34 38 0 -5 8 -18 19 -29 18 -18
16 -21 -69 -113 -96 -104 -124 -155 -159 -288 -28 -102 -52 -152 -83 -172 -13
-9 -59 -25 -103 -37 -109 -30 -146 -53 -184 -116 -18 -29 -41 -61 -52 -71 -10
-9 -19 -21 -19 -26 0 -5 -11 -26 -25 -46 -25 -37 -34 -92 -15 -92 6 0 10 8 10
18 0 34 48 118 88 154 22 20 60 42 84 49 39 10 137 7 208 -7 19 -4 21 -3 10 5
-41 26 -202 30 -264 5 -18 -7 -18 -6 -1 20 23 34 93 70 180 92 93 23 146 74
169 159 38 142 58 194 95 250 48 74 128 153 207 205 54 36 61 38 79 24 56 -42
175 -76 175 -51 0 7 9 20 20 30 11 9 20 26 20 37 0 11 5 20 10 20 18 0 -17 55
-45 70 -41 22 -90 16 -132 -18 -68 -53 -124 -83 -162 -88 -38 -4 -38 -4 -44
38 -14 101 25 291 77 378 33 56 56 112 56 136 0 20 -37 54 -59 54 -10 0 -33
-10 -51 -23z m88 -29 c2 -10 -22 -68 -52 -130 -31 -62 -56 -125 -56 -140 0
-45 -18 -32 -27 20 -27 158 16 277 97 270 24 -2 36 -9 38 -20z m212 -468 c10
-5 23 -24 29 -42 11 -30 9 -35 -11 -51 -17 -14 -32 -17 -62 -13 -52 9 -54 11
-62 52 -5 28 -2 38 12 49 22 17 67 19 94 5z m-123 -70 c12 -33 7 -37 -22 -16
-11 8 -16 19 -12 30 10 24 21 19 34 -14z"/>
        <path d="M2522 3558 c-17 -21 -18 -53 -3 -81 8 -15 12 -29 10 -31 -3 -3 -23 0
-45 5 -49 13 -105 0 -154 -33 -37 -26 -85 -90 -95 -128 -4 -17 5 -8 28 25 19
28 46 62 60 76 33 32 107 50 180 42 32 -3 57 -3 57 1 0 3 -9 22 -20 43 -26 49
-13 73 39 73 40 0 111 -42 130 -78 36 -67 15 -216 -36 -249 -25 -17 -26 -16
-47 10 -12 15 -25 27 -29 27 -12 0 -8 -21 8 -37 8 -8 13 -18 10 -23 -3 -4 2
-10 10 -14 34 -13 11 -71 -79 -208 -10 -16 -14 -28 -10 -28 11 1 109 146 123
183 6 15 8 34 5 42 -4 9 5 24 23 39 61 52 81 191 37 265 -30 51 -95 91 -147
91 -24 0 -49 -6 -55 -12z"/>
        <path d="M3069 3545 c-41 -30 -59 -53 -59 -74 0 -9 9 -2 19 15 39 64 94 81
132 43 17 -17 20 -29 15 -61 -4 -26 -3 -37 4 -33 5 3 10 24 10 45 0 30 -7 45
-27 65 -35 31 -50 31 -94 0z"/>
        <path d="M2997 3433 c-8 -23 9 -112 26 -128 6 -7 7 -2 2 15 -4 14 -10 50 -14
80 -5 42 -8 50 -14 33z"/>
        <path d="M3156 3394 c-14 -15 -26 -32 -26 -38 0 -6 13 3 28 20 15 18 34 34 42
37 13 5 12 6 -1 6 -9 1 -28 -11 -43 -25z"/>
        <path d="M3040 3262 c0 -10 37 -45 60 -57 8 -4 -1 8 -19 28 -37 39 -41 42 -41
29z"/>
        <path d="M3146 3138 c14 -47 77 -167 96 -185 20 -18 20 -18 6 12 -48 105 -94
194 -101 195 -5 0 -5 -10 -1 -22z"/>
        <path d="M3322 3073 c-12 -32 -24 -84 -28 -115 -3 -32 -9 -58 -13 -58 -4 0 -1
-35 6 -77 16 -89 13 -361 -5 -404 -27 -68 -72 -77 -101 -21 -11 21 -37 48 -61
62 -72 44 -63 92 25 139 61 32 146 138 104 129 -6 -2 -17 13 -24 32 -24 70
-99 38 -81 -34 5 -21 13 -26 36 -26 38 0 39 -18 3 -52 -29 -28 -82 -53 -91
-43 -3 3 -1 31 6 62 6 30 8 62 4 70 -8 14 -23 -38 -37 -131 l-6 -38 -25 23
c-14 13 -50 37 -81 54 -74 39 -82 59 -20 50 61 -9 107 14 107 55 0 27 -29 60
-53 60 -5 0 -27 -19 -48 -42 l-38 -42 -26 24 c-35 32 -34 87 1 129 34 40 58
54 114 62 l45 6 -45 1 c-56 1 -125 -33 -145 -72 -22 -42 -19 -109 5 -131 11
-10 20 -28 20 -40 0 -27 31 -56 90 -85 46 -23 90 -64 90 -85 0 -22 -34 -43
-115 -73 -44 -17 -111 -45 -148 -62 -53 -25 -82 -33 -130 -33 -57 -1 -68 3
-127 41 -71 46 -120 55 -120 22 0 -10 10 -25 23 -31 18 -9 20 -9 9 2 -16 17
-15 29 2 29 24 0 86 -41 86 -56 0 -7 10 -16 23 -18 97 -20 138 -16 242 24 39
15 85 21 203 25 92 3 152 1 152 -5 0 -18 44 -50 70 -50 33 0 65 33 86 90 16
45 17 62 11 460 -2 78 3 120 17 163 24 76 15 84 -12 10z m-304 -317 c6 -27
-24 -46 -70 -46 -21 0 -38 2 -38 5 0 3 14 19 31 36 34 34 72 36 77 5z m188 -2
c4 -17 2 -29 -7 -35 -19 -12 -33 -6 -37 15 -9 46 33 65 44 20z m-120 -289 l38
-35 -46 0 c-25 0 -74 -3 -109 -6 -75 -8 -71 4 10 32 29 10 56 25 58 31 7 17 5
18 49 -22z"/>
        <path d="M2157 3063 c-23 -81 -14 -181 22 -250 53 -105 71 -135 71 -121 0 8
-11 35 -23 59 -13 24 -34 74 -46 112 -19 57 -22 79 -16 142 7 70 3 98 -8 58z"/>
        <path d="M3120 2940 c8 -5 23 -10 33 -10 9 0 40 -22 67 -48 28 -27 50 -47 50
-45 0 21 -39 67 -73 88 -42 24 -113 38 -77 15z"/>
        <path d="M2240 2638 c0 -25 3 -29 10 -18 13 20 13 50 0 50 -5 0 -10 -15 -10
-32z"/>
        <path d="M2188 2533 c-19 -18 -44 -35 -57 -38 -33 -6 -39 -15 -10 -15 23 -1
23 -1 5 -15 -10 -8 -51 -24 -90 -36 -114 -35 -114 -35 -68 -75 39 -33 55 -65
81 -159 6 -22 37 -76 68 -120 48 -66 75 -91 158 -147 55 -37 127 -94 159 -125
38 -37 52 -47 38 -27 -37 54 -74 87 -177 161 -152 109 -189 156 -234 297 -14
42 -36 86 -57 110 l-35 41 28 12 c15 7 36 12 46 13 30 0 107 46 141 84 55 59
107 58 121 -2 10 -45 106 -165 149 -186 52 -25 114 -31 175 -16 71 17 152 15
246 -5 124 -26 241 -6 274 47 9 15 3 13 -31 -8 -68 -43 -145 -43 -361 1 -10 2
-63 -4 -118 -13 -93 -15 -103 -15 -154 2 -50 16 -60 23 -106 89 -28 40 -53 84
-56 99 -7 35 -30 54 -70 60 -26 4 -38 -2 -65 -29z"/>
        <path d="M1978 2473 c12 -2 30 -2 40 0 9 3 -1 5 -23 4 -22 0 -30 -2 -17 -4z"/>
        <path d="M1588 2407 c-5 -10 -8 -57 -8 -104 0 -134 -41 -222 -135 -287 -19
-14 -19 -15 8 -27 22 -10 35 -10 67 1 47 15 56 11 40 -22 -6 -12 12 1 40 31
28 29 49 56 46 59 -3 3 -32 -9 -65 -27 -32 -17 -72 -31 -87 -31 l-29 0 32 30
c79 74 113 175 104 305 -4 55 -9 83 -13 72z"/>
        <path d="M1630 1946 c-36 -13 -71 -21 -77 -19 -7 3 -13 -2 -13 -11 0 -18 20
-21 36 -7 5 5 37 17 70 25 113 29 133 17 59 -34 -98 -68 -145 -185 -145 -364
0 -141 21 -261 60 -345 60 -129 158 -259 290 -388 277 -270 348 -340 379 -378
30 -37 31 -38 14 -7 -24 44 -136 169 -215 240 -214 193 -323 316 -406 460 -53
91 -79 165 -97 275 -26 160 -21 220 32 360 29 80 101 157 164 177 22 7 39 16
39 21 0 27 -107 24 -190 -5z"/>
        <path d="M3665 1687 c-28 -144 -69 -245 -145 -359 -98 -148 -189 -226 -473
-404 -84 -53 -181 -117 -217 -142 -131 -93 -266 -249 -333 -387 -33 -67 -67
-170 -66 -198 0 -12 13 14 28 58 57 163 125 271 250 396 84 83 139 122 480
341 82 52 145 103 220 178 122 121 181 213 229 355 28 82 59 241 50 251 -2 2
-13 -38 -23 -89z"/>
    </g>
</svg>
