<svg version="1.0" xmlns="http://www.w3.org/2000/svg" width="1616" height="406pt" viewBox="0 0 1212 406" fill="#1c6554" stroke="#1c6554">
    <g stroke-width="1.5">
        <path d="M170 7.9c0 1.6 4.2 8.2 4.8 7.6.3-.3 0-1.1-.6-1.7-1.4-1.4-1.6-3.8-.3-3.8 2.2 0 9.9 9.8 13.6 17.3 5.6 11.2 5.9 11.3 31 12.8 18.1 1 20.4 1 24-.5 5.2-2.2 8-4.8 12.6-12.1l3.9-6v4.7c0 2.8.5 4.8 1.1 4.8s3-1.6 5.4-3.6c4.1-3.3 11-6.2 12.2-5 .3.3-1.1 2-3.1 3.9-2 2-3.6 4.4-3.6 5.7 0 2 .3 2.2 3.5 1.6 4.7-.9 5.8-.1 3.9 2.9-1.8 2.7-1.7 2.7 4.1 4 5.3 1.1 11.8 4.7 20.6 11.4 4.7 3.6 11.2 8.2 14.4 10.1 3.3 1.9 8 5.6 10.7 8.2 4.1 4.1 4.8 5.4 4.8 8.6 0 5-4 10.7-12 16.9-7.9 6.1-10.4 11.1-10.8 22-.5 9.7-1.3 10.2-6.5 4.4-5-5.6-6.2-7.5-10.2-17.4-3.3-8.3-3.5-9.5-3.5-20.5-.1-13.1-1-18.2-4.7-26.2-4-8.8-12.3-14.2-12.3-8 0 1.1 1.5 5.9 3.4 10.8C280 70.1 284 82.4 284 84c0 1.9-1.7 1-2.8-1.5-.6-1.4-1.5-2.5-2-2.5s.7 3.2 2.7 7c2.7 5.6 3.2 7.3 2.2 8.3-.9.9-2.1.2-5.4-3.5-5.6-6.3-8.7-7-12.6-2.8-1.9 2.1-3 4.6-3.3 7.1-.2 2.2-.3 3.9-.3 3.9 0 .1 2.4.3 5.3.6 5.7.6 10.2-1.2 10.2-4.1 0-1.8.4-1.9 3.1-.3 1.7 1.1 2.3 1 3.9-.9 1.5-1.9 1.9-2 2.4-.7.3.9.6 2.8.6 4.2 0 1.5 1.3 5.8 2.9 9.7 3 7.2 13.3 27.9 15 29.9 1.1 1.3 11.1 18.6 11.1 19.1 0 1-4.8-.7-7.2-2.5-4.2-3.1-3.4-.7 2.2 6.5 4.2 5.6 7 11.4 7 15 0 .5-2.2-1.3-5-4-2.7-2.7-5.3-4.6-5.6-4.2-.6.5 1.6 9.4 4.4 17.7.3.8-1.8-.8-4.5-3.6-4.6-4.7-8.7-7.3-9.9-6.2-.2.3.1 2.9.6 5.9 1.2 6 1.5 21.2.5 22.9-1.2 1.9-2 1-3.9-4.2-2.3-6.6-4.4-9.8-6.3-9.8-1.1 0-1.4.8-1.1 3.2.6 3.6-1.1 10.7-3.5 15.5-2.7 5.2-9.6 10.1-22.1 15.9-13.8 6.3-17.2 8.6-22.9 16-4.5 5.6-11.3 18.1-10.5 18.9.3.3 2.7-3.2 5.4-7.7 6-10.3 12.1-16.9 18.7-20.3 2.8-1.5 5.8-3.1 6.6-3.5.9-.5 4.2-1.8 7.4-3.1 11.9-4.5 20.8-13.9 22.3-23.7.4-2.3 1-4.5 1.5-4.8 1.4-.8 4.9 7.3 4.9 11.6 0 5.4 1.9 4.9 4.2-1.1 2-5.1 2.4-18.4.7-24.2-1.3-4.7-.7-5.5 2.5-3.3 6.9 4.4 12.5 15.6 14.2 28.1.4 2.8 1.5 5.8 2.5 6.8 1.1 1 1.9 2.3 1.9 2.9 0 2 5.1 7.8 8.3 9.4 10.8 5.5-6.9-7.2-11-21.8-1.9-6.8-3.6-13.4-3.7-14.8-.2-1.4-1.3-5.8-2.5-9.9-1.1-4.1-1.9-7.6-1.7-7.8s3 2.6 6.2 6.2c3.1 3.6 7.6 7.7 9.8 9 5 2.9-5.4-4.4-5.4-9 0-4-4-13.9-7.2-17.9-2.4-3-2.7-3.8-1.2-3.2 3.6 1.5 8.4 2.4 8.4 1.6 0-.5-.4-1-.8-1.2-1.1-.4-7.6-10.9-13.2-21.3-2.4-4.4-5.2-9.2-6.3-10.7-2.8-3.8-1.6-4.4 2.8-1.3 4.3 2.9 7 3.2 7.9.9.3-.9.6-5 .6-9.1 0-9.4 1-11.1 12.5-21.6 4.9-4.5 8.5-8.6 8.5-9.7 0-1 .5-2.2 1-2.5 1.6-1 1.2-7.8-.7-10.5-2.6-4-8.8-9.5-14-12.5-2.6-1.6-7.5-4.9-10.8-7.4-9.4-7.3-18.3-12.9-22.3-14.1-2-.6-4.3-1.3-5.1-1.6-1.1-.3-1.1-.7-.1-2 1.7-2 .4-3.2-4-3.6-4.9-.4-4.5-2.7 1.2-6.3 2.6-1.7 4.8-3.3 4.8-3.8 0-.4-2.8-.7-6.2-.7-5 0-7.1.6-11.6 3.1l-5.5 3.1.5-4.6c.3-2.6.2-4.9-.3-5.1-.4-.3-3.3 3.3-6.5 8-8.7 13-8.3 12.9-33.2 12.1-27-.9-25.8-.3-34.7-16.6-3.2-5.8-5.3-8.3-10-11.4-3.9-2.7-6.5-3.3-6.5-1.7Zm109.6 45.3c5.4 6.5 7.8 13.4 8.2 24 .3 6.7.1 9.8-.7 9.8-.6 0-1.3-1-1.5-2.3-2-9.7-3.3-14.1-6.7-22.4-2.2-5.2-3.9-10.1-3.9-10.9 0-2.3 1.6-1.6 4.6 1.8Zm-4.2 37.4c1.4 1.5 2.6 3 2.6 3.4 0 1.2-6 6-7.4 6-2.4 0-5.6-3.2-5.6-5.6 0-2.8 3.2-6.4 5.9-6.4 1 0 3 1.2 4.5 2.6Z"/>
        <path d="M174.6 19.5c.3 1.4.4 2.5.1 2.5s-3.8-.7-7.8-1.5c-4-.9-8.1-1.3-9.1-.9-1.7.5-1.6.8 1.2 3.7 5.4 5.5 3.9 7.2-8.5 9.7-12.3 2.4-19.4 5.2-26.6 10.2-11.1 7.8-18.6 9.9-26.6 7.3-3.1-1-4.2 1.9-1.8 4.5s1.6 3.3-2.4 1.9c-4.3-1.5-4.9-.6-1.8 3 2.5 3 2.5 3 .8 7.6-1.5 4.3-1.5 4.7.3 7.8 1 1.8 3.8 7.1 6.2 11.8 5.4 10.6 6.2 11.3 11.4 10.5 4.5-.7 4.7-.4 2.1 3.2-3.7 5.4-8 24.3-5.5 24.1.5 0 2.9-2.8 5.4-6.2 2.5-3.3 5.1-6.3 5.8-6.5 1.5-.5-2.3 7.5-7.4 15.6-1.9 2.9-3.4 5.5-3.4 5.7 0 .3-2.4 3.7-5.3 7.5s-7.1 10.4-9.2 14.6c-3.8 7.4-4 8.2-4 17 0 6.1.4 9.7 1.3 10.6s1.2.9 1.2-.5c0-1 .4-2.5.9-3.5.5-.9 1.6-3.4 2.5-5.6 2.1-4.8 10.2-14.3 13.8-16.2 4.9-2.5 16.2-14.8 20.7-22.4 4.8-8.1 9.5-20.6 8.1-21.5-.5-.3-1.4 1.2-2.1 3.2-1.8 5.6-7.2 16.4-10.6 21.4-3.9 5.6-6.2 8-19 19.8-5.7 5.2-10.3 9.9-10.3 10.5 0 1.6-3.4 8.5-4.2 8.6-1.2 0-.9-9.9.3-14.4.6-2.1 5.3-10.2 10.6-17.9 11.4-17 21.9-36.2 20.3-37.2-.7-.4-3.9 2.1-7.6 5.7-7.9 8-8.3 6.5-1.9-7.7 2.5-5.5 4.5-10.1 4.5-10.3 0-.3-2.4-.1-5.4.2-6.2.8-8.6-.7-8.6-5.4 0-1.6-1-4.1-2.3-5.7-3.1-3.8-7.4-10.5-8-12.3-.2-.8.2-2.8 1-4.4.9-1.7 1.3-4.1.9-5.8-.5-2.8-.5-2.8 3.6-2.6 4.4.3 6.4-1.6 2.9-2.7-3.8-1.2-2.2-2.2 4.2-2.8 7.3-.7 12-2.5 18.5-7.2 7.3-5.2 17.7-9.5 28.2-11.6 5.9-1.2 10-2.6 10.8-3.6 1.8-2.4 1.5-7-.5-8.2-4.6-2.5 1.7-2.2 11.5.5 2 .6 2.2.3 2.2-3 0-2-.5-3.6-1-3.6-.6 0-.8 1.1-.4 2.5z"/>
        <path d="M172 37.3c-6.4 4.2-7.6 7.7-7.1 20.7 1 26.9.8 31.1-1.8 37.8-2.7 7.2-7.7 13.2-11 13.2-2.5 0-8.7-4-16.4-10.6-6.6-5.6-16.7-14.1-23.4-19.7-2.9-2.4-6.5-4.9-8-5.6-1.6-.7-3.6-1.8-4.6-2.3-1.1-.5-2.1-.7-2.4-.4-.9.9 1.6 3.4 4 4.2 2.7.8 10.9 7 12 9 .4.8 1.3 1.4 1.8 1.4.6 0 7.4 5.4 15.2 12.1 14.3 12.2 16.9 13.9 21.2 13.9 5.6 0 9.1-3.6 13.1-13.2 1.7-4.4 3.4-6.2 3.4-3.8 0 .5.8 1.8 1.9 2.9 1.8 1.8 1.6 2.1-6.9 11.3-9.6 10.4-12.4 15.5-15.9 28.8-2.8 10.2-5.2 15.2-8.3 17.2-1.3.9-5.9 2.5-10.3 3.7-10.9 3-14.6 5.3-18.4 11.6-1.8 2.9-4.1 6.1-5.2 7.1-1 .9-1.9 2.1-1.9 2.6s-1.1 2.6-2.5 4.6c-2.5 3.7-3.4 9.2-1.5 9.2.6 0 1-.8 1-1.8 0-3.4 4.8-11.8 8.8-15.4 2.2-2 6-4.2 8.4-4.9 3.9-1 13.7-.7 20.8.7 1.9.4 2.1.3 1-.5-4.1-2.6-20.2-3-26.4-.5-1.8.7-1.8.6-.1-2 2.3-3.4 9.3-7 18-9.2 9.3-2.3 14.6-7.4 16.9-15.9 3.8-14.2 5.8-19.4 9.5-25 4.8-7.4 12.8-15.3 20.7-20.5 5.4-3.6 6.1-3.8 7.9-2.4 5.6 4.2 17.5 7.6 17.5 5.1 0-.7.9-2 2-3 1.1-.9 2-2.6 2-3.7s.5-2 1-2c1.8 0-1.7-5.5-4.5-7-4.1-2.2-9-1.6-13.2 1.8-6.8 5.3-12.4 8.3-16.2 8.8-3.8.4-3.8.4-4.4-3.8-1.4-10.1 2.5-29.1 7.7-37.8 3.3-5.6 5.6-11.2 5.6-13.6 0-2-3.7-5.4-5.9-5.4-1 0-3.3 1-5.1 2.3zm8.8 2.9c.2 1-2.2 6.8-5.2 13-3.1 6.2-5.6 12.5-5.6 14 0 4.5-1.8 3.2-2.7-2-2.7-15.8 1.6-27.7 9.7-27 2.4.2 3.6.9 3.8 2zM202 87c1 .5 2.3 2.4 2.9 4.2 1.1 3 .9 3.5-1.1 5.1-1.7 1.4-3.2 1.7-6.2 1.3-5.2-.9-5.4-1.1-6.2-5.2-.5-2.8-.2-3.8 1.2-4.9 2.2-1.7 6.7-1.9 9.4-.5zm-12.3 7c1.2 3.3.7 3.7-2.2 1.6-1.1-.8-1.6-1.9-1.2-3 1-2.4 2.1-1.9 3.4 1.4z"/>
        <path d="M202.2 63.2c-1.7 2.1-1.8 5.3-.3 8.1.8 1.5 1.2 2.9 1 3.1-.3.3-2.3 0-4.5-.5-4.9-1.3-10.5 0-15.4 3.3-3.7 2.6-8.5 9-9.5 12.8-.4 1.7.5.8 2.8-2.5 1.9-2.8 4.6-6.2 6-7.6 3.3-3.2 10.7-5 18-4.2 3.2.3 5.7.3 5.7-.1 0-.3-.9-2.2-2-4.3-2.6-4.9-1.3-7.3 3.9-7.3 4 0 11.1 4.2 13 7.8 3.6 6.7 1.5 21.6-3.6 24.9-2.5 1.7-2.6 1.6-4.7-1-1.2-1.5-2.5-2.7-2.9-2.7-1.2 0-.8 2.1.8 3.7.8.8 1.3 1.8 1 2.3-.3.4.2 1 1 1.4 3.4 1.3 1.1 7.1-7.9 20.8-1 1.6-1.4 2.8-1 2.8 1.1-.1 10.9-14.6 12.3-18.3.6-1.5.8-3.4.5-4.2-.4-.9.5-2.4 2.3-3.9 6.1-5.2 8.1-19.1 3.7-26.5-3-5.1-9.5-9.1-14.7-9.1-2.4 0-4.9.6-5.5 1.2zm54.7 1.3c-4.1 3-5.9 5.3-5.9 7.4 0 .9.9.2 1.9-1.5 3.9-6.4 9.4-8.1 13.2-4.3 1.7 1.7 2 2.9 1.5 6.1-.4 2.6-.3 3.7.4 3.3.5-.3 1-2.4 1-4.5 0-3-.7-4.5-2.7-6.5-3.5-3.1-5-3.1-9.4 0zm-7.2 11.2c-.8 2.3.9 11.2 2.6 12.8.6.7.7.2.2-1.5-.4-1.4-1-5-1.4-8-.5-4.2-.8-5-1.4-3.3zm15.9 3.9c-1.4 1.5-2.6 3.2-2.6 3.8s1.3-.3 2.8-2c1.5-1.8 3.4-3.4 4.2-3.7 1.3-.5 1.2-.6-.1-.6-.9-.1-2.8 1.1-4.3 2.5zM254 92.8c0 1 3.7 4.5 6 5.7.8.4-.1-.8-1.9-2.8-3.7-3.9-4.1-4.2-4.1-2.9zm10.6 12.4c1.4 4.7 7.7 16.7 9.6 18.5 2 1.8 2 1.8.6-1.2-4.8-10.5-9.4-19.4-10.1-19.5-.5 0-.5 1-.1 2.2z"/>
        <path d="M282.2 111.7c-1.2 3.2-2.4 8.4-2.8 11.5-.3 3.2-.9 5.8-1.3 5.8s-.1 3.5.6 7.7c1.6 8.9 1.3 36.1-.5 40.4-2.7 6.8-7.2 7.7-10.1 2.1-1.1-2.1-3.7-4.8-6.1-6.2-7.2-4.4-6.3-9.2 2.5-13.9 6.1-3.2 14.6-13.8 10.4-12.9-.6.2-1.7-1.3-2.4-3.2-2.4-7-9.9-3.8-8.1 3.4.5 2.1 1.3 2.6 3.6 2.6 3.8 0 3.9 1.8.3 5.2-2.9 2.8-8.2 5.3-9.1 4.3-.3-.3-.1-3.1.6-6.2.6-3 .8-6.2.4-7-.8-1.4-2.3 3.8-3.7 13.1l-.6 3.8-2.5-2.3c-1.4-1.3-5-3.7-8.1-5.4-7.4-3.9-8.2-5.9-2-5 6.1.9 10.7-1.4 10.7-5.5 0-2.7-2.9-6-5.3-6-.5 0-2.7 1.9-4.8 4.2l-3.8 4.2-2.6-2.4c-3.5-3.2-3.4-8.7.1-12.9 3.4-4 5.8-5.4 11.4-6.2l4.5-.6-4.5-.1c-5.6-.1-12.5 3.3-14.5 7.2-2.2 4.2-1.9 10.9.5 13.1 1.1 1 2 2.8 2 4 0 2.7 3.1 5.6 9 8.5 4.6 2.3 9 6.4 9 8.5 0 2.2-3.4 4.3-11.5 7.3-4.4 1.7-11.1 4.5-14.8 6.2-5.3 2.5-8.2 3.3-13 3.3-5.7.1-6.8-.3-12.7-4.1-7.1-4.6-12-5.5-12-2.2 0 1 1 2.5 2.3 3.1 1.8.9 2 .9.9-.2-1.6-1.7-1.5-2.9.2-2.9 2.4 0 8.6 4.1 8.6 5.6 0 .7 1 1.6 2.3 1.8 9.7 2 13.8 1.6 24.2-2.4 3.9-1.5 8.5-2.1 20.3-2.5 9.2-.3 15.2-.1 15.2.5 0 1.8 4.4 5 7 5 3.3 0 6.5-3.3 8.6-9 1.6-4.5 1.7-6.2 1.1-46-.2-7.8.3-12 1.7-16.3 2.4-7.6 1.5-8.4-1.2-1zm-30.4 31.7c.6 2.7-2.4 4.6-7 4.6-2.1 0-3.8-.2-3.8-.5s1.4-1.9 3.1-3.6c3.4-3.4 7.2-3.6 7.7-.5zm18.8.2c.4 1.7.2 2.9-.7 3.5-1.9 1.2-3.3.6-3.7-1.5-.9-4.6 3.3-6.5 4.4-2zm-12 28.9 3.8 3.5h-4.6c-2.5 0-7.4.3-10.9.6-7.5.8-7.1-.4 1-3.2 2.9-1 5.6-2.5 5.8-3.1.7-1.7.5-1.8 4.9 2.2zm-92.9-59.8c-2.3 8.1-1.4 18.1 2.2 25 5.3 10.5 7.1 13.5 7.1 12.1 0-.8-1.1-3.5-2.3-5.9-1.3-2.4-3.4-7.4-4.6-11.2-1.9-5.7-2.2-7.9-1.6-14.2.7-7 .3-9.8-.8-5.8z"/>
        <path d="M262 125c.8.5 2.3 1 3.3 1 .9 0 4 2.2 6.7 4.8 2.8 2.7 5 4.7 5 4.5 0-2.1-3.9-6.7-7.3-8.8-4.2-2.4-11.3-3.8-7.7-1.5zm-88 30.2c0 2.5.3 2.9 1 1.8 1.3-2 1.3-5 0-5-.5 0-1 1.5-1 3.2zm-5.2 10.5c-1.9 1.8-4.4 3.5-5.7 3.8-3.3.6-3.9 1.5-1 1.5 2.3.1 2.3.1.5 1.5-1 .8-5.1 2.4-9 3.6-11.4 3.5-11.4 3.5-6.8 7.5 3.9 3.3 5.5 6.5 8.1 15.9.6 2.2 3.7 7.6 6.8 12 4.8 6.6 7.5 9.1 15.8 14.7 5.5 3.7 12.7 9.4 15.9 12.5 3.8 3.7 5.2 4.7 3.8 2.7-3.7-5.4-7.4-8.7-17.7-16.1-15.2-10.9-18.9-15.6-23.4-29.7-1.4-4.2-3.6-8.6-5.7-11l-3.5-4.1 2.8-1.2c1.5-.7 3.6-1.2 4.6-1.3 3 0 10.7-4.6 14.1-8.4 5.5-5.9 10.7-5.8 12.1.2 1 4.5 10.6 16.5 14.9 18.6 5.2 2.5 11.4 3.1 17.5 1.6 7.1-1.7 15.2-1.5 24.6.5 12.4 2.6 24.1.6 27.4-4.7.9-1.5.3-1.3-3.1.8-6.8 4.3-14.5 4.3-36.1-.1-1-.2-6.3.4-11.8 1.3-9.3 1.5-10.3 1.5-15.4-.2-5-1.6-6-2.3-10.6-8.9-2.8-4-5.3-8.4-5.6-9.9-.7-3.5-3-5.4-7-6-2.6-.4-3.8.2-6.5 2.9zm-21 6c1.2.2 3 .2 4 0 .9-.3-.1-.5-2.3-.4-2.2 0-3 .2-1.7.4zm-39 6.6c-.5 1-.8 5.7-.8 10.4 0 13.4-4.1 22.2-13.5 28.7-1.9 1.4-1.9 1.5.8 2.7 2.2 1 3.5 1 6.7-.1 4.7-1.5 5.6-1.1 4 2.2-.6 1.2 1.2-.1 4-3.1 2.8-2.9 4.9-5.6 4.6-5.9s-3.2.9-6.5 2.7c-3.2 1.7-7.2 3.1-8.7 3.1h-2.9l3.2-3c7.9-7.4 11.3-17.5 10.4-30.5-.4-5.5-.9-8.3-1.3-7.2zm4.2 46.1c-3.6 1.3-7.1 2.1-7.7 1.9-.7-.3-1.3.2-1.3 1.1 0 1.8 2 2.1 3.6.7.5-.5 3.7-1.7 7-2.5 11.3-2.9 13.3-1.7 5.9 3.4-9.8 6.8-14.5 18.5-14.5 36.4 0 14.1 2.1 26.1 6 34.5 6 12.9 15.8 25.9 29 38.8 27.7 27 34.8 34 37.9 37.8 3 3.7 3.1 3.8 1.4.7-2.4-4.4-13.6-16.9-21.5-24-21.4-19.3-32.3-31.6-40.6-46-5.3-9.1-7.9-16.5-9.7-27.5-2.6-16-2.1-22 3.2-36 2.9-8 10.1-15.7 16.4-17.7 2.2-.7 3.9-1.6 3.9-2.1 0-2.7-10.7-2.4-19 .5zm203.5 25.9c-2.8 14.4-6.9 24.5-14.5 35.9-9.8 14.8-18.9 22.6-47.3 40.4-8.4 5.3-18.1 11.7-21.7 14.2-13.1 9.3-26.6 24.9-33.3 38.7-3.3 6.7-6.7 17-6.6 19.8 0 1.2 1.3-1.4 2.8-5.8 5.7-16.3 12.5-27.1 25-39.6 8.4-8.3 13.9-12.2 48-34.1 8.2-5.2 14.5-10.3 22-17.8 12.2-12.1 18.1-21.3 22.9-35.5 2.8-8.2 5.9-24.1 5-25.1-.2-.2-1.3 3.8-2.3 8.9z"/>
    </g>
    <path d="M601.16 96.56c-.33.36-.66 11.64-.66 25.08V146h10.89l.33-6.96.33-6.84 9.57-.6c7.26-.48 10.34-1.2 12.65-3.12 9.68-7.8 8.69-23.88-1.98-29.52-3.74-1.92-29.7-4.08-31.13-2.4M625.8 107c3.96 2.28 5.28 7.92 2.86 12-1.87 3.12-6.71 4.68-12.87 3.96l-3.74-.36-.33-7.08c-.22-3.84-.11-7.8.22-8.64.77-2.28 9.79-2.16 13.86.12m72.93-10.56c-1.98.24-3.63.72-3.63 1.08 0 .24 2.09 4.2 4.51 8.64 13.09 23.16 12.32 21.12 12.1 30.84l-.22 9h11.11v-8.16c0-7.92.11-8.28 8.8-24.24 4.84-8.76 8.8-16.32 8.8-16.8 0-.36-2.42-.36-5.28-.24l-5.39.48-5.28 10.08c-2.97 5.52-5.61 10.08-5.94 10.08-.44 0-3.08-4.32-6.05-9.6-4.62-8.28-8.14-12.6-9.68-11.76-.22 0-1.98.36-3.85.6m54.56.24c-7.48 2.64-10.89 7.32-10.89 15 0 6.72 3.63 10.08 15.4 14.4 9.46 3.36 10.45 3.96 10.45 6.72 0 1.92-.88 3.48-2.75 4.44-3.96 2.16-7.37 1.92-14.41-1.32l-6.27-2.76-1.76 4.2c-2.2 4.92-1.87 5.28 6.93 8.16 7.15 2.28 17.71 1.8 22.99-1.2 6.16-3.48 8.47-11.76 5.17-18.6-1.65-3.72-6.05-6.36-13.75-8.52-8.8-2.4-11-3.72-11-6.6 0-4.32 2.53-5.64 9.57-5.04 3.52.36 7.7.96 9.24 1.44 2.2.6 2.97.36 3.41-1.44.33-1.2.99-3 1.32-4.08.55-1.32-.22-2.28-2.31-3.36-3.85-1.92-17.49-2.88-21.34-1.44m65.56 1.68c-17.38 8.88-17.49 37.08-.22 45.96 10.56 5.28 22.55 3.36 30.03-4.8 9.57-10.32 9.46-26.28-.22-36.36-7.7-8.04-19.36-9.96-29.59-4.8m19.03 9.24c6.16 4.08 8.58 14.4 5.17 21.6-3.63 7.56-12.21 10.56-19.25 6.6-7.37-4.2-9.24-17.28-3.63-24.6 4.95-6.48 11.44-7.8 17.71-3.6m-489.06 14.04c.33 21.24.55 24.96 1.98 24.96 1.32 0 1.76-2.28 1.98-11.76l.33-11.64h28.49v11.4c0 10.56.11 11.4 2.2 11.4s2.2-.84 2.2-24.6-.11-24.6-2.2-24.6-2.2.84-2.2 10.8v10.8H353v-10.8c0-10.08-.11-10.8-2.2-10.8-2.2 0-2.2.6-1.98 24.84m51.26-6.6c.22 13.2.88 19.44 2.09 22.2 3.85 8.88 17.49 12.6 26.62 7.32 7.7-4.32 9.35-9.12 9.68-27.36.33-17.16-.22-20.4-3.08-20.4-1.98 0-2.09 1.2-2.09 16.8 0 20.16-1.1 24.36-7.37 27.12-8.03 3.72-17.27 0-19.8-8.04-.77-2.28-1.32-10.92-1.32-20.04-.11-15.72-.11-15.84-2.64-15.84h-2.53zM452 121.4c0 23.76.11 24.6 2.2 24.6s2.2-.84 2.2-19.32c0-10.56.44-19.08.99-18.84.44.12 7.04 8.76 14.63 18.96 8.91 12.12 14.52 18.72 16.06 18.96 2.42.36 2.42.36 2.42-24.24 0-23.88-.11-24.72-2.2-24.72s-2.2.84-2.31 14.04c-.11 7.8-.11 16.44 0 19.32 0 2.88-.33 5.04-.99 4.8-.55-.24-7.26-8.88-14.85-19.32-9.46-13.08-14.41-18.84-15.95-18.84-2.09 0-2.2.84-2.2 24.6m53.9-.12V146h12.98c11.22 0 13.64-.36 17.82-2.76 7.92-4.32 12.98-15.24 11.77-25.2-.88-6.84-6.05-15.12-11.22-18.12-3.63-2.04-6.82-2.64-17.82-2.88l-13.53-.48zM534.39 104c8.47 4.68 11.44 18.48 6.16 28.2-3.63 6.72-7.7 8.64-19.8 9.24l-9.9.36-.33-20.16-.22-20.04h9.9c7.81 0 10.89.48 14.19 2.4m25.3-5.4c-.11.96-.11 2.64-.11 3.6s0 11.28.11 22.8l.11 21h16.5c13.75 0 16.5-.24 16.5-1.8 0-1.44-2.53-1.8-13.97-2.04l-14.08-.36-.33-9.36-.33-9.24h12.21c11.11 0 12.21-.24 11.88-2.16-.33-1.8-1.98-2.04-12.21-2.4l-11.77-.36v-16.56l13.53-.36c11-.36 13.42-.72 13.42-2.16 0-2.76-31.24-3.36-31.46-.6m88.11 22.8V146h11v-20.4h20.9V146h11V96.8h-10.89l-.33 9.24-.33 9.36-10.12.36-10.23.36V96.8h-11zm139.15 0V146h10.45V96.8h-10.45zM859 99.2c0 2.16.77 2.4 7.7 2.4h7.7V146h5.5v-44.4h7.7c6.93 0 7.7-.24 7.7-2.4 0-2.28-.77-2.4-18.15-2.4S859 96.92 859 99.2m45.1 21.96c0 13.44.33 24.72.66 25.2.33.36 1.32.36 2.2 0 1.21-.48 1.54-3.36 1.54-11.88V123.2h28.6v11.4c0 11.4 0 11.4 2.75 11.4h2.75V96.8h-2.75c-2.75 0-2.75.12-2.75 10.8v10.8h-28.6v-10.8c0-9.96-.11-10.8-2.2-10.8s-2.2.84-2.2 24.36m52.8.24V146h16.5c13.75 0 16.5-.24 16.5-1.8 0-1.44-2.53-1.8-13.97-2.04l-14.08-.36-.33-9.36-.33-9.24h12.21c11.11 0 12.21-.24 11.88-2.16-.33-1.8-1.98-2.04-12.21-2.4l-11.77-.36V101.6h13.2c12.43 0 13.2-.12 13.2-2.4s-.77-2.4-15.4-2.4h-15.4zm42.9 0V146h2.75c2.64 0 2.75-.24 2.75-7.8v-7.8h16.28l4.62 7.8c3.63 6.12 5.28 7.8 7.37 7.8 2.97 0 3.08.36-3.19-9.84l-4.18-6.84 3.3-2.16c6.27-4.08 8.58-15.36 4.51-22.68-3.41-6-8.03-7.68-22-7.68H999.8zm27.83-17.4c3.96 3.36 4.95 9.96 2.42 15-2.53 5.28-5.72 6.6-15.95 6.6h-8.8v-24h9.79c8.14 0 10.23.36 12.54 2.4m29.81 2.04c-2.2 5.16-6.16 15-8.91 21.96-2.64 6.96-5.61 13.8-6.49 15.24-1.54 2.64-1.43 2.76 1.21 2.76 2.42 0 3.3-1.08 5.5-6.6l2.75-6.6h25.3l2.97 6.6c2.31 5.16 3.52 6.6 5.5 6.6 2.97 0 3.08-.36.88-4.56-.88-1.8-5.5-12.48-10.34-23.64-7.7-18.12-9.02-20.4-11.55-20.76-2.64-.36-3.19.48-6.82 9m12.54 9.6c2.53 6 4.62 11.28 4.62 11.64s-4.73.72-10.45.72-10.45-.24-10.45-.48 1.21-3.36 2.64-6.84c1.43-3.6 3.74-9.12 4.95-12.36 1.32-3.24 2.75-5.4 3.19-4.8.55.6 2.97 6 5.5 12.12m25.52 5.76c0 23.64.11 24.6 2.2 24.6 1.76 0 2.09-.96 2.42-7.56l.33-7.44 9.9-.6c5.5-.36 11.33-1.44 13.09-2.4 10.23-5.64 10.67-22.56.77-28.56-3.63-2.28-6.05-2.64-16.5-2.64h-12.21zm27.61-16.32c2.53 2.76 3.19 4.56 3.19 8.52 0 9-5.83 12.48-19.25 11.76l-6.6-.36-.33-11.76-.33-11.64h10.01c9.68 0 10.23.12 13.31 3.48m18.59 16.32V146h5.39V96.8h-5.39zm19.8 0V146h16.5c13.97 0 16.5-.24 16.5-1.8 0-1.92-1.43-2.16-18.15-2.4l-9.9-.24-.33-9.12-.33-9.24H1178c11.11 0 12.21-.24 11.88-2.16-.33-1.8-1.98-2.04-12.21-2.4l-11.77-.36v-16.56l13.42-.36c11.88-.36 13.53-.6 13.86-2.52s-.99-2.04-15.62-2.04h-16.06z" stroke-width="0" stroke="none"/>
    <g stroke-width="1.6">
        <path d="M927 161.2c-26.6 6.8-42 14.6-54.2 27.2-8 8.2-13 17.6-9.4 17.6 1 0 2.6-3 3.6-6.4 1.4-4.8 5.8-9.2 16.2-16.8C901.4 170 919 164 939.6 164c20.2 0 28.4 3.8 32.2 15.2 2.6 7.6 2.6 9.4-.6 18-7.4 19.8-41.8 45.8-64.2 48.2-5 .6-9 .8-9 .4 0-1.2 20.6-41.2 28.8-56.2 7.2-13.4 7-21.4-.4-9.2-7.2 12-29.8 56.6-30.8 61-1 3.8-2.6 4.6-9.2 4.6-4.6 0-8.8-1-9.6-2.4-1-1.6.4-1.8 5.4-1 4.8 1 6 .8 3.8-.6-4.6-3-12-2.4-12 1s6 7 11.8 7c5.4 0 5.2 2-.6 13.6-5.4 10.8-13.2 33-13.2 37.4 0 1.6.6 3 1.6 3 1.2 0 3.4-5.6 15-38.6 2.2-6.2 5-11.4 6.2-11.4 1.4 0 5.6 3.2 9.4 7.2C924 282 949 296 965.8 296c13.2 0 12.4-2.2-1.2-2.8-13-.8-30.4-9.8-50.4-26.4-8.8-7.4-16.2-14.2-16.2-15s4-2 9-2.6c21.8-3.4 56.6-27.4 66.2-45.6 4-7.6 4.6-22.6 1-29-3.6-7-16.8-12.6-30.8-13.6-6.8-.4-14.2-.4-16.4.2zm-490.8 19.2c-9 25.6-13.2 34.8-19 42.8-3.4 4.4-10.4 13.8-15.6 20.6-5.4 7-9.6 13.6-9.6 14.8 0 1.4 5.8-5.8 13-15.6s13-16.4 13-14.8-6 14.6-13.2 29C386.6 293.4 376 305.8 383 283c3.6-12.2 2.6-14-1.8-3-6.8 17.2-2.2 23.6 8.6 11.4 8-8.6 38.2-69.8 38.2-77 0-3.4 33-33.4 42.4-38.2 21.4-11.4 20.6 1-3.2 49.2-9.4 19.2-17.2 35.2-17.2 35.6 0 .6 1.2 1 2.6 1s6.4-5.4 11.2-11.8c4.8-6.6 15-18.4 22.8-26.4 19.2-19.6 31.4-26.6 31.4-18.4 0 4.4-8.4 26.8-20 53.6-7.8 17.8-8.8 21.6-8.8 35.8-.2 11.6.6 16 2.4 16.8 2.2.6 2.4 0 .6-3.2-1.2-2.2-2.2-6.4-2.2-9.2 0-7.4 10.4-37.6 21.2-61.6 10.6-23.6 12.8-33.4 8-37.4-5-4.2-18.4 5-40 28.2-10.6 11.2-19.2 19.8-19.2 19.2 0-.8 2.8-6.2 6.2-12 8.6-14.4 19.6-38.6 22.4-49 6.2-23.6-17-20-44.4 6.8-4.8 4.8-9.4 8.6-10.2 8.6-1 0 .4-5.2 2.8-11.6 5.8-14.8 7.8-22.4 5.6-22.4-1 0-3.8 5.6-6.2 12.4zm202 7.4c-5.2 5.2-15.2 20.4-22.8 33.4-14.4 25.4-20.4 31.4-41.8 40.8-15.8 7-20 .8-10.6-15.2 5.4-9.2 11.6-14 15.2-11.6 1.2.6 1.6 2.6 1 4.2s-.2 2.2.8 1.6c1.2-.6 2-3 2-5.2 0-6.6-9.2-4.6-18.6 4-4.6 4.2-12.8 10.8-18 15-11 8.2-10.2 9.8 1.2 2.2l7.4-5.2v5.8c0 6.4 3.2 10.4 8.4 10.4 4.8 0 30-12.8 33.4-16.8 5-6 5.8-3.2 2 7.2-4.8 13.2-4.8 18.4-.2 11.6 6.8-9.6 22.8-28 24.6-28 1 0 1.8 3.8 1.8 8.6 0 9 2.6 13.4 8 13.4 2.4-.2 2.4-.4-.4-2.2-2.6-1.4-3.6-4.6-3.6-11.8 0-13-4-13.2-16-1-4.8 4.8-9 8.6-9.6 8.2-2.4-2.4 10-19.4 25.2-34.6 9.6-9.8 20-22.4 23-28.2 10-18.4 2.2-22.4-12.4-6.6zm12.8-1.4c-1.6 5.2-9.6 19-13.6 23.6-6.8 7.8-21.4 20.6-21.4 18.8 0-1 4.4-9 10-17.8 14.2-22.4 28.6-36.6 25-24.6zm79.2 3.2c-5.6 6.6-14.8 20.8-20.4 31.6-12.4 23.8-12 23.2-23.4 30.8-11.6 7.8-23.6 11.2-27.6 7.8-4.8-3.8-3.2-7.2 5.6-12.2 9.8-5.4 13.6-10.4 10.2-13.8s-9.8.8-23.4 14.8c-6.4 6.6-9.4 10.6-6.6 8.8 5-3.2 5.4-3.2 10.4 1.8 4.2 4.2 6.2 4.8 11.6 3.8 7.6-1.8 20.8-8.2 26.2-12.8 3.6-3 3.8-3 2.4 1.8-.8 2.8-1.8 9.6-2.6 15.2-1 9.2-.6 10.6 3 12.6 2.8 1.4 5.8 1.6 9.2.2 6.2-2.2 20.6-15.2 23.6-20.8 1.2-2.4-2.8.4-8.6 6-17 16.2-23.8 18-23.8 6 0-14.6 5.8-25.6 22.8-42.4 24.6-24.8 37-48.8 26-50.4-3-.4-7 2.6-14.6 11.2zm9.8 9c-7.2 11.8-29.4 36.6-31.2 34.8-2.6-2.4 16.4-32.4 29-46 6.6-7 7.2-7.2 7.8-3.4.4 2.4-2.2 9-5.6 14.6zm-68 39.2c0 1.8-8.8 8.2-11.2 8.2-.8 0 .6-2.2 3.2-5 4.8-5.2 8-6.4 8-3.2zm441.6-49.8c-3.8 6-11.8 20.6-17.4 32.4-10 20.8-10.4 21.4-19.6 24.4l-9.4 3.2-4.2-5.2c-3.8-4.8-4.8-5-9.2-2.8-2.6 1.4-7.2 4.8-10.2 7.6-3.2 2.8-5.6 4.4-5.6 3.2 0-3.4 7-11.8 23.2-27.8 15.8-15.8 28.8-36.2 25.8-40.8-5.6-9.4-29 16.8-45.2 50.8-6 12.4-13.4 19.8-27.8 27.2-7 3.6-8.6 4-10.2 1.6-2-3.4-.4-10.6 4.8-19.2 4.4-7.6 1.2-9-3.8-1.6-1.8 2.8-8.4 8.2-14.6 12.2s-9 6.6-6.2 5.8 7.2-3.2 9.8-5.2c6-4.8 9-5 6.6-.6-1 1.8-1.4 5-1 7 2 7.8 10.2 6.4 26-4.4l9.2-6.4-1.4 7.4-1.4 7.2 12-12.2c6.6-6.8 12.8-11.6 14-11 4.6 3 2 9.2-6.2 14.8-16.8 11.6-22.4 22.2-12.8 24 4.6 1 18.2-12 22.8-21.4 2.4-5 5.6-7.6 11.2-9.6 4.4-1.4 8.2-2.4 8.6-2 .2.4-2.6 8.4-6.4 18-7.8 19.2-7.8 19.4-5.2 19.4 1 0 3.4-4.2 5-9.6 4.6-13 10.2-20.2 13.4-17 1.4 1.4 3.8 2.6 5.4 2.6 1.8 0 1.2-1.4-1.8-3.8l-4.8-3.8 8.4-8.2c4.4-4.6 11-8.8 14.4-9.4 6-1.2 8-3.6 4.6-5.6-2.2-1.2-9 2.8-17.2 10.2-3.8 3.6-7.6 6.6-8.2 6.6-2 0 4.8-14.2 19-39.2 14.4-25.6 18.4-38.8 5.6-18.8zm-35.8 11c-6.8 11.4-28.8 34.6-30.8 32.6-1.6-1.6 26.2-42.8 31.6-46.6 7.2-5 6.8 1.4-.8 14zm-21.8 60.8c-3.6 7-15.8 18.6-18 17.2-4-2.4-2-6.8 6.4-13.8 9.4-8 15-9.6 11.6-3.4zm-287.2-65.4c-9.6 10.2-18.6 24.2-26 40.6-3 6.6-6.2 13.2-7.4 14.6-1 1.4-2.4 8.6-2.8 16-1.4 23.6 7.4 24 30.6 1 7.2-6.8 13.4-12.6 13.8-12.6.6 0 1 1.2 1 2.8 0 3 11.4 8.6 13.4 6.4.6-.6 0-1.2-1.8-1.2-3.2 0-10.8-7.4-9.2-9 .4-.6 4.8-3 9.8-5.6 8.8-4.6 12-10 8.2-13.8-3.4-3.4-11.2 2.6-25.8 19.2-15.8 18.4-30.4 30-35.6 28-2.8-1.2-3.2-3-2.2-11.4 2-14 5.6-20.2 22.4-37.8 15.4-16.2 26.8-33.6 26.8-41.2 0-7-6.2-5.4-15.2 4zm13.2-2.8c0 4.6-17 29-26.8 38.2-9.4 9-9.4 4.8 0-10.8 15.2-25.2 26.8-37 26.8-27.4zm11.4 49.6c-8.2 7-11.6 5.8-3.8-1.4 3.8-3.4 7.4-5.4 8-4.8.8.8-1.2 3.6-4.2 6.2zM535 225.8c-1.2 2.2 1.8 4.6 3.8 2.8 1.8-1.8 1.4-4.6-.6-4.6-1.2 0-2.4.8-3.2 1.8zm478 .4c-.8 1.2-1 2.6-.4 3.2 1.4 1.4 5.4-1.2 5.4-3.6s-3.4-2.4-5 .4zm121.6 16c-11.6 10.2-17.6 13.8-30.6 17.6l-7 2 8-1.2c4.4-.6 11.4-2.8 15.6-5 4.4-2.2 8-3.6 8-3.2 2.6 5.4 5.2 8.6 7.6 9.2 2.2.8 2.4.4.4-1.8-4.4-4.6-2.8-8.8 4.2-11.4 8.2-3 14-9.2 12.6-13.4-2.2-5.2-6.8-3.4-18.8 7.2zm11.2 0c-7.6 5.8-9.2 4.4-2.8-2.2 3.6-3.8 6.2-5.2 6.8-3.8.4 1.4-1.4 4-4 6z"/>
        <path d="M964.2 241c-7.2 8.2-7.8 14.8-2.2 20 3.4 3 5 3.2 10.4 1.4 4.6-1.6 5-2 1.4-1.4-5 .8-13.8-3.6-13.8-7 0-1.2 3-3.2 6.8-4.8 6.2-2.6 13.2-9.8 13.2-13.6 0-1-2.2-1.6-4.8-1.6-3 0-7.2 2.6-11 7zm9 .2c-3 2.8-6.2 4.6-6.8 4-1.8-1.8 6-9.2 9.4-9.2 2.2.2 1.6 1.6-2.6 5.2zm-447.2 3c-4.6 9-4.6 18 0 19.4 2.2.6 2.4.4.6-1.6-2.6-2.8-.6-11.4 4.2-18.4 3.6-5.2 4-7.6 1.2-7.6-1 0-3.8 3.6-6 8.2zm285.2 7.8c-6.4 4.4-11 8-10.2 8 3 0 21-11.2 22-13.4 1.2-3.4 1.6-3.6-11.8 5.4zm354-.8c-5.2 3.8-12.4 7.6-16 8.6-3.4 1-4.6 2-2.6 2 4.6.2 19-6.6 26.4-12.8 8.8-7.2 3.6-5.6-7.8 2.2z"/>
    </g>
</svg>
